<svg class="ldi-uzrske" width="200px"  height="200px"  xmlns="http://www.w3.org/2000/svg" xmlns:xlink="http://www.w3.org/1999/xlink" viewBox="0 0 100 100" preserveAspectRatio="xMidYMid" style="background: none;"><!--?xml version="1.0" encoding="utf-8"?--><!--Generator: Adobe Illustrator 21.0.0, SVG Export Plug-In . SVG Version: 6.00 Build 0)--><svg version="1.1" id="Layer_1" xmlns="http://www.w3.org/2000/svg" xmlns:xlink="http://www.w3.org/1999/xlink" x="0px" y="0px" viewBox="0 0 100 100" style="transform-origin: 50px 50px 0px;" xml:space="preserve"><g style="transform-origin: 50px 50px 0px;"><g style="transform-origin: 50px 50px 0px; transform: scale(0.5);"><g style="transform-origin: 50px 50px 0px; animation-duration: 1s; animation-delay: -1s; animation-direction: normal;" class="ld ld-tremble-px"><g><g style="transform-origin: 50px 50px 0px; animation-duration: 1s; animation-delay: -1s; animation-direction: normal;" class=""><path style="fill: rgb(62, 109, 141);" d="M38.283,68.939c-1.945-0.634-4.153-0.053-5.532,1.459c-1.44,1.579-1.751,3.636-1.15,5.396 c0.286,0.836,0.232,1.74-0.229,2.493c-0.025,0.041-0.05,0.083-0.075,0.126c-0.537,0.93-0.78,1.909-0.741,2.742 c0.06,1.275-0.195,2.545-0.906,3.605l-0.075,0.112c-0.764,1.161-1.667,2.241-2.242,3.51c-0.585,1.264-1.105,2.565-1.353,4.024 l0.162,0.093c1.139-0.944,2.006-2.045,2.808-3.184c0.812-1.133,1.296-2.455,1.919-3.697l0.06-0.122 c0.563-1.146,1.534-2.002,2.669-2.588c0.741-0.382,1.467-1.082,2.004-2.013c0.021-0.037,0.042-0.073,0.062-0.11 c0.426-0.774,1.176-1.292,2.043-1.461c1.469-0.286,2.811-1.18,3.619-2.579C42.998,73.85,41.661,70.04,38.283,68.939z" fill="#3e6d8d"></path></g><g style="transform-origin: 50px 50px 0px;"><g><g style="transform-origin: 50px 50px 0px; animation-duration: 1s; animation-delay: -0.962963s; animation-direction: normal;" class=""><polygon style="fill: rgb(75, 155, 190);" points="51.289,59.812 41.716,54.285 30.86,67.999 44.84,76.071 	" fill="#4b9bbe"></polygon></g><g style="transform-origin: 50px 50px 0px; animation-duration: 1s; animation-delay: -0.925926s; animation-direction: normal;" class=""><path style="opacity: 0.1; fill: rgb(238, 243, 239);" d="M47.787,66.516c-5.698,1.916-11.391,1.662-15.539-0.272l-1.389,1.755l13.98,8.072l3.937-9.927 C48.448,66.27,48.126,66.403,47.787,66.516z" fill="#eef3ef"></path></g></g></g><g style="transform-origin: 50px 50px 0px;"><g><g style="transform-origin: 50px 50px 0px; animation-duration: 1s; animation-delay: -0.888889s; animation-direction: normal;" class=""><path style="fill: rgb(249, 170, 71);" d="M77.924,13.969c0.119-2.766-1.613-5.337-4.368-6.203c-1.804-0.567-3.775-0.195-5.371,0.82 l-12.296,7.823c-1.208,0.768-2.254,1.756-3.098,2.902l23.532,13.586c0.571-1.304,0.903-2.704,0.964-4.134L77.924,13.969z" fill="#f9aa47"></path></g><g style="transform-origin: 50px 50px 0px; animation-duration: 1s; animation-delay: -0.851852s; animation-direction: normal;" class=""><path style="opacity: 0.1; fill: rgb(238, 243, 239);" d="M76.553,13.255c-3.432,5.546-7.785,9.898-12.28,12.685l12.049,6.957 c0.571-1.304,0.903-2.704,0.964-4.134l0.637-14.794c0.036-0.836-0.116-1.647-0.395-2.406C77.212,12.128,76.9,12.695,76.553,13.255z " fill="#eef3ef"></path></g></g></g><g style="transform-origin: 50px 50px 0px; animation-duration: 1s; animation-delay: -0.814815s; animation-direction: normal;" class=""><path style="fill: rgb(201, 50, 40);" d="M65.194,52.327L53.331,70.982l0.805,0.464l6.972,5.381l5.834-8.361 c0.612-1.292,0.798-2.746,0.531-4.151L65.194,52.327z" fill="#c93228"></path></g><g style="transform-origin: 50px 50px 0px; animation-duration: 1s; animation-delay: -0.777778s; animation-direction: normal;" class=""><path style="opacity: 0.1; fill: rgb(238, 243, 239);" d="M65.194,52.327L53.331,70.982l0.805,0.464l6.972,5.381l5.834-8.361 c0.612-1.292,0.798-2.746,0.531-4.151L65.194,52.327z" fill="#eef3ef"></path></g><g style="transform-origin: 50px 50px 0px;"><g><g style="transform-origin: 50px 50px 0px; animation-duration: 1s; animation-delay: -0.740741s; animation-direction: normal;" class=""><path style="fill: rgb(201, 50, 40);" d="M26.395,45.057L22.07,54.29l8.146,3.347l1.069,0.617l10.434-19.919l-11.995,4.187 C28.373,42.993,27.208,43.881,26.395,45.057z" fill="#c93228"></path></g><g style="transform-origin: 50px 50px 0px; animation-duration: 1s; animation-delay: -0.703704s; animation-direction: normal;" class=""><path style="opacity: 0.1; fill: rgb(238, 243, 239);" d="M24.874,51.926c-0.46-0.265-0.868-0.594-1.251-0.952L22.07,54.29l8.146,3.347l1.069,0.617 l4.037-7.708C31.652,52.945,27.798,53.606,24.874,51.926z" fill="#eef3ef"></path></g></g></g><g style="transform-origin: 50px 50px 0px;"><g><g style="transform-origin: 50px 50px 0px; animation-duration: 1s; animation-delay: -0.666667s; animation-direction: normal;" class=""><path style="fill: rgb(62, 109, 141);" d="M52.084,20.381L41.719,38.335L31.285,58.254l22.046,12.728l11.863-18.655L75.75,34.044 c0.214-0.371,0.402-0.756,0.573-1.147L52.791,19.311C52.538,19.654,52.299,20.009,52.084,20.381z" fill="#3e6d8d"></path></g><g style="transform-origin: 50px 50px 0px; animation-duration: 1s; animation-delay: -0.62963s; animation-direction: normal;" class=""><path style="opacity: 0.1; fill: rgb(238, 243, 239);" d="M34.533,55.66c-0.497-0.266-0.965-0.573-1.418-0.899l-1.83,3.493l22.046,12.728l11.863-18.655 L75.75,34.044c0.214-0.371,0.402-0.756,0.573-1.147l-2.574-1.486C62.55,50.674,45.371,61.462,34.533,55.66z" fill="#eef3ef"></path></g></g></g><g style="transform-origin: 50px 50px 0px; animation-duration: 1s; animation-delay: -0.592593s; animation-direction: normal;" class=""><ellipse transform="matrix(0.5 -0.866 0.866 0.5 -4.0888 68.7963)" style="fill: rgb(75, 155, 190);" cx="57.535" cy="37.939" rx="5.892" ry="5.892" fill="#4b9bbe"></ellipse></g><g style="transform-origin: 50px 50px 0px; animation-duration: 1s; animation-delay: -0.555556s; animation-direction: normal;" class=""><line style="fill: none; stroke: rgb(238, 243, 239); stroke-width: 3; stroke-linecap: round; stroke-miterlimit: 10;" x1="47.113" y1="35.016" x2="46.725" y2="35.687" stroke="#eef3ef"></line></g><g style="transform-origin: 50px 50px 0px; animation-duration: 1s; animation-delay: -0.518519s; animation-direction: normal;" class=""><line style="fill: none; stroke: rgb(238, 243, 239); stroke-width: 3; stroke-linecap: round; stroke-miterlimit: 10;" x1="52.165" y1="26.268" x2="49.473" y2="30.929" stroke="#eef3ef"></line></g><metadata xmlns:d="https://loading.io/stock/" style="transform-origin: 50px 50px 0px; animation-duration: 1s; animation-delay: -0.481481s; animation-direction: normal;" class="">
<d:name style="transform-origin: 50px 50px 0px; animation-duration: 1s; animation-delay: -0.444444s; animation-direction: normal;" class="">rocket</d:name>
<d:tags style="transform-origin: 50px 50px 0px; animation-duration: 1s; animation-delay: -0.407407s; animation-direction: normal;" class="">rocket,launch,space shuttle,take off,fire,star ship,flight,future,technology,landing page</d:tags>
<d:license style="transform-origin: 50px 50px 0px; animation-duration: 1s; animation-delay: -0.37037s; animation-direction: normal;" class="">cc-by</d:license>
<d:slug style="transform-origin: 50px 50px 0px; animation-duration: 1s; animation-delay: -0.333333s; animation-direction: normal;" class="">uzrske</d:slug>
</metadata></g></g></g></g><style type="text/css" style="transform-origin: 50px 50px 0px; animation-duration: 1s; animation-delay: -0.296296s; animation-direction: normal;" class="">@keyframes ld-tremble-px {
  0% {
    -webkit-transform: translate(1px, 1px);
    transform: translate(1px, 1px);
  }
  5% {
    -webkit-transform: translate(0, 1px);
    transform: translate(0, 1px);
  }
  10% {
    -webkit-transform: translate(1px, 2px);
    transform: translate(1px, 2px);
  }
  15% {
    -webkit-transform: translate(2px, 1px);
    transform: translate(2px, 1px);
  }
  20% {
    -webkit-transform: translate(3px, 0);
    transform: translate(3px, 0);
  }
  25% {
    -webkit-transform: translate(1px, 2px);
    transform: translate(1px, 2px);
  }
  30% {
    -webkit-transform: translate(1px, 3px);
    transform: translate(1px, 3px);
  }
  35% {
    -webkit-transform: translate(0, 1px);
    transform: translate(0, 1px);
  }
  40% {
    -webkit-transform: translate(1px, 1px);
    transform: translate(1px, 1px);
  }
  45% {
    -webkit-transform: translate(1px, 0);
    transform: translate(1px, 0);
  }
  50% {
    -webkit-transform: translate(2px, 1px);
    transform: translate(2px, 1px);
  }
  55% {
    -webkit-transform: translate(1px, 2px);
    transform: translate(1px, 2px);
  }
  60% {
    -webkit-transform: translate(3px, 1px);
    transform: translate(3px, 1px);
  }
  65% {
    -webkit-transform: translate(0, 2px);
    transform: translate(0, 2px);
  }
  70% {
    -webkit-transform: translate(3px, 0);
    transform: translate(3px, 0);
  }
  75% {
    -webkit-transform: translate(0, 0);
    transform: translate(0, 0);
  }
  80% {
    -webkit-transform: translate(2px, 3px);
    transform: translate(2px, 3px);
  }
  85% {
    -webkit-transform: translate(1px, 0);
    transform: translate(1px, 0);
  }
  90% {
    -webkit-transform: translate(0, 2px);
    transform: translate(0, 2px);
  }
  95% {
    -webkit-transform: translate(3px, 2px);
    transform: translate(3px, 2px);
  }
}
@-webkit-keyframes ld-tremble-px {
  0% {
    -webkit-transform: translate(1px, 1px);
    transform: translate(1px, 1px);
  }
  5% {
    -webkit-transform: translate(0, 1px);
    transform: translate(0, 1px);
  }
  10% {
    -webkit-transform: translate(1px, 2px);
    transform: translate(1px, 2px);
  }
  15% {
    -webkit-transform: translate(2px, 1px);
    transform: translate(2px, 1px);
  }
  20% {
    -webkit-transform: translate(3px, 0);
    transform: translate(3px, 0);
  }
  25% {
    -webkit-transform: translate(1px, 2px);
    transform: translate(1px, 2px);
  }
  30% {
    -webkit-transform: translate(1px, 3px);
    transform: translate(1px, 3px);
  }
  35% {
    -webkit-transform: translate(0, 1px);
    transform: translate(0, 1px);
  }
  40% {
    -webkit-transform: translate(1px, 1px);
    transform: translate(1px, 1px);
  }
  45% {
    -webkit-transform: translate(1px, 0);
    transform: translate(1px, 0);
  }
  50% {
    -webkit-transform: translate(2px, 1px);
    transform: translate(2px, 1px);
  }
  55% {
    -webkit-transform: translate(1px, 2px);
    transform: translate(1px, 2px);
  }
  60% {
    -webkit-transform: translate(3px, 1px);
    transform: translate(3px, 1px);
  }
  65% {
    -webkit-transform: translate(0, 2px);
    transform: translate(0, 2px);
  }
  70% {
    -webkit-transform: translate(3px, 0);
    transform: translate(3px, 0);
  }
  75% {
    -webkit-transform: translate(0, 0);
    transform: translate(0, 0);
  }
  80% {
    -webkit-transform: translate(2px, 3px);
    transform: translate(2px, 3px);
  }
  85% {
    -webkit-transform: translate(1px, 0);
    transform: translate(1px, 0);
  }
  90% {
    -webkit-transform: translate(0, 2px);
    transform: translate(0, 2px);
  }
  95% {
    -webkit-transform: translate(3px, 2px);
    transform: translate(3px, 2px);
  }
}
.ld.ld-tremble-px {
  -webkit-animation: ld-tremble-px 1s infinite;
  animation: ld-tremble-px 1s infinite;
}
</style></svg></svg>